PathFileType	4	(X/Y/Z)	S01_0008_Gait_markers.trc
DataRate	CameraRate	NumFrames	NumMarkers	Units	OrigDataRate	OrigDataStartFrame	OrigNumFrames
250.000000	250.000000	4	54	mm	250.000000	42	340
Frame#	Time	HEAD_ANT			R_HEAD			L_HEAD			C7			R_BACK			L_BACK			STERNUM			R_ACROMION			R_HUM_PROX			R_HUM_ANT			R_HUM_POST			R_ELBOW_LAT			R_ELBOW_MED			R_FOREARM			R_WIRST_LAT			R_WRITS_MED			R_HAND			L_ACROMION			L_HUM_PROX			L_HUM_ANT			L_HUM_POST			L_ELBOW_LAT			L_ELBOW_MED			L_FOREARM			L_WRIST_LAT			L_WIRST_MED			L_HAND			R_ILIAC			SACRUM			L_ILIAC			R_GTROCH			R_THIGH__1			R_THIGH_2			R_THIGH_3			R_THIGH_4			R_SHANK_1			R_SHANK_2			R_SHANK_3			R_SHANK_4			R_HEEL			R_FOOT_LAT			R_FOOT_MED			L_GTROCH			L_THIGH_1			L_THIGH_2			L_THIGH_3			L_THIGH_4			L_SHANK_1			L_SHANK_2			L_SHANK_3			L_SHANK_4			L_HEEL			L_FOOT_LAT			L_FOOT_MED			
		X1	Y1	Z1	X2	Y2	Z2	X3	Y3	Z3	X4	Y4	Z4	X5	Y5	Z5	X6	Y6	Z6	X7	Y7	Z7	X8	Y8	Z8	X9	Y9	Z9	X10	Y10	Z10	X11	Y11	Z11	X12	Y12	Z12	X13	Y13	Z13	X14	Y14	Z14	X15	Y15	Z15	X16	Y16	Z16	X17	Y17	Z17	X18	Y18	Z18	X19	Y19	Z19	X20	Y20	Z20	X21	Y21	Z21	X22	Y22	Z22	X23	Y23	Z23	X24	Y24	Z24	X25	Y25	Z25	X26	Y26	Z26	X27	Y27	Z27	X28	Y28	Z28	X29	Y29	Z29	X30	Y30	Z30	X31	Y31	Z31	X32	Y32	Z32	X33	Y33	Z33	X34	Y34	Z34	X35	Y35	Z35	X36	Y36	Z36	X37	Y37	Z37	X38	Y38	Z38	X39	Y39	Z39	X40	Y40	Z40	X41	Y41	Z41	X42	Y42	Z42	X43	Y43	Z43	X44	Y44	Z44	X45	Y45	Z45	X46	Y46	Z46	X47	Y47	Z47	X48	Y48	Z48	X49	Y49	Z49	X50	Y50	Z50	X51	Y51	Z51	X52	Y52	Z52	X53	Y53	Z53	X54	Y54	Z54	

43	0.168	416.4400634765625	1715.170043945312	-344.4334716796871	358.4588623046875	1660.4482421875	-269.730804443359	359.7501220703125	1667.505737304688	-417.363372802734	225.8146057128906	1492.828491210938	-352.483245849609	149.5971527099609	1293.773559570312	-297.1594543457028	153.1034088134766	1302.292602539062	-430.9313049316403	401.2284851074219	1328.463989257812	-349.8529663085935	296.2923583984375	1437.025146484375	-177.9467926025387	243.4192810058594	1273.9892578125	-98.11329650878878	299.5636291503906	1185.598266601562	-91.39691925048801	178.3504486083984	1193.376708984375	-96.6701583862302	220.4269256591797	1084.3193359375	-89.3501815795896	209.1340789794922	1082.9580078125	-168.7560882568357	310.8150024414062	896.8800048828125	-81.86354827880839	354.19287109375	832.3060913085938	-116.0334625244139	280.6757507324219	809.224365234375	-96.84905242919903	343.6212463378906	742.4644165039062	-66.02130126953108	306.8076782226562	1450.732299804688	-519.3854980468747	291.192138671875	1285.976806640625	-616.3149414062497	356.5325927734375	1207.797729492188	-613.8466796874998	236.857177734375	1206.430297851563	-645.0087890624998	300.4417419433594	1103.213623046875	-651.637268066406	248.4701232910156	1092.701293945313	-594.6168823242185	427.3150329589844	943.0599975585939	-633.0172119140623	469.4198303222656	891.0134887695314	-582.597717285156	424.104736328125	858.3204956054689	-638.8983764648435	509.6017150878906	816.8693847656251	-629.2825927734373	303.4454956054688	1040.900268554688	-192.3460693359373	171.9398956298828	1019.366821289063	-356.4103088378904	288.5442504882812	1038.966674804688	-538.1268310546873	278.6352844238281	894.7658081054688	-176.8735504150389	401.6991271972656	635.8402099609375	-215.3974761962889	449.0378723144531	670.265625	-217.9625244140624	485.1921081542969	576.1915283203125	-254.9345855712889	424.1166076660156	559.3335571289062	-238.2278289794921	469.7027282714844	339.6824645996094	-238.6488342285155	525.7741088867188	330.4727783203126	-259.8863220214843	536.4093017578125	246.8985900878907	-279.5739135742187	474.43603515625	239.947250366211	-262.2123718261718	462.7588500976562	37.80796813964852	-354.7479858398438	622.7517700195312	24.34656524658209	-267.60693359375	676.375	40.45960617065438	-358.1611022949219	239.2924041748047	932.8311767578126	-539.4372558593748	257.0181274414062	639.5894165039064	-535.1147460937499	209.3885803222656	673.6319580078126	-545.8969726562499	171.3507995605469	576.2308959960939	-520.5068969726561	234.1446533203125	563.0183715820314	-517.3587646484374	50.6319580078125	339.6927795410157	-507.7129821777343	-7.251870632171631	358.7731018066407	-507.8456115722656	-61.60869598388672	292.3585815429689	-488.7211303710937	-7.766341209411621	257.7794189453126	-484.2106628417968	-201.2060546875	174.2634887695313	-413.1118469238281	-98.85833740234375	22.62128829956065	-452.4878540039062	-61.56667709350586	35.75559997558602	-353.8581848144531	
44	0.172	422.2177124023438	1715.567749023438	-343.6918334960934	364.3035888671875	1661.03076171875	-268.8918457031247	365.5117797851562	1668.076904296875	-416.5602416992184	231.8292083740234	1493.416625976562	-351.7447814941403	155.8173370361328	1294.090087890625	-296.1574096679685	159.1360015869141	1302.517822265625	-430.104797363281	407.3690185546875	1329.208740234375	-349.6424255371091	302.6473388671875	1437.3359375	-177.2664947509762	250.1940612792969	1274.252075195312	-97.54933166503878	306.392578125	1185.848754882812	-91.15830230712864	185.2335510253906	1193.75146484375	-95.89221954345676	227.0759887695312	1084.8662109375	-89.0958099365232	215.7142639160156	1083.797973632812	-168.502258300781	317.2461547851562	897.0574951171875	-81.88925170898418	360.3321838378906	832.341552734375	-116.0412063598631	286.7300720214844	809.500244140625	-96.98621368408185	349.6618041992188	742.4666137695312	-66.38320922851545	312.8008728027344	1451.40966796875	-518.6558837890622	296.7245788574219	1286.54931640625	-615.6353149414059	362.0000915527344	1208.468139648438	-613.3825073242185	242.0780487060547	1207.236083984375	-644.0175781249998	305.5179748535156	1104.019165039063	-650.8400268554685	253.4746398925781	1093.827880859375	-593.601135253906	431.4269714355469	943.0095214843751	-633.1230468749998	473.654052734375	890.7060546875001	-582.827209472656	427.8776245117188	858.2638549804689	-639.013732910156	513.1173706054688	816.4852905273439	-629.9002685546873	310.2965393066406	1041.460327148438	-192.0673980712888	178.9025421142578	1019.819274902344	-355.4731750488279	295.6802368164062	1039.587158203125	-537.6041259765623	284.9378662109375	895.9747314453125	-176.6644439697264	409.2541198730469	637.0806274414062	-215.0786132812499	456.8911743164062	671.2242431640625	-217.9672698974608	493.3764038085938	577.5762329101562	-254.7922515869139	431.5295715332031	560.3135375976562	-237.5142211914061	473.859375	339.8292236328126	-238.446548461914	529.8174438476562	330.0104064941407	-259.9030151367187	539.4846801757812	246.3336486816407	-279.5755920410156	477.5316162109375	239.9243469238282	-262.0945739746093	463.47119140625	38.25394821167	-354.4343872070312	623.7182006835938	23.63656234741217	-267.0857238769531	677.4970703125	38.80721664428719	-358.8135375976562	245.8465728759766	932.8256835937501	-539.3848876953123	265.5994262695312	639.4756469726564	-535.5554809570311	217.7772216796875	673.0319824218751	-545.8580932617186	180.7738037109375	575.3822021484376	-521.6632690429686	243.2408905029297	562.1405639648439	-518.2960205078124	58.35324478149414	340.3696594238282	-509.4470825195312	0.7967435121536255	359.9563903808595	-509.0997924804687	-54.42351913452148	294.6983642578126	-490.1954956054687	-1.044399857521057	259.2551269531251	-486.1980285644531	-194.3498687744141	178.869354248047	-414.0559997558593	-98.05089569091797	23.49727249145518	-452.2964172363281	-61.32607269287109	36.15447616577156	-353.782958984375	
45	0.176	428.0471801757812	1716.087890625	-342.9103088378902	370.3044128417969	1661.50048828125	-267.9803771972653	371.3665466308594	1668.558227539062	-415.8600158691402	237.8677520751953	1493.99072265625	-351.030609130859	162.1121978759766	1294.360229492188	-295.143615722656	165.2656707763672	1302.578125	-429.394836425781	413.5597839355469	1329.94677734375	-349.1963806152341	309.0223693847656	1437.767822265625	-176.6160125732419	256.58642578125	1274.55029296875	-97.48228454589815	313.2610168457031	1186.218139648438	-90.93766784667942	192.1509094238281	1193.990600585938	-95.04718780517551	233.8261260986328	1085.256958007812	-88.77179718017554	222.1703338623047	1084.403076171875	-168.4246520996091	323.7921752929688	897.2381591796875	-81.90723419189433	366.6032104492188	832.4083251953125	-116.1770019531248	293.0755920410156	809.6174926757812	-96.94178771972638	355.7416076660156	742.4386596679688	-66.5481872558592	318.8334655761719	1452.120849609375	-517.9126586914059	302.1755981445312	1287.169921875	-614.8401489257809	367.271728515625	1208.936889648438	-613.0487670898435	247.1500244140625	1208.05810546875	-643.0961303710935	310.4406127929688	1104.584106445313	-650.2186279296873	258.6146850585938	1094.671142578125	-592.7293701171873	435.6523132324219	943.2525024414064	-633.1049194335935	477.7103271484375	890.4839477539064	-583.2830810546873	431.48974609375	858.4637451171876	-639.4953613281248	516.595703125	816.1340332031251	-630.558654785156	317.0784301757812	1042.320678710938	-191.7026214599607	183.782470703125	1020.174011230469	-355.452697753906	303.2307739257812	1040.166381835938	-536.9982299804685	291.2601318359375	897.1327514648438	-176.3254699707029	416.8083190917969	637.8291625976562	-214.4362640380858	464.2889709472656	672.1131591796875	-218.1339721679686	500.0771789550781	578.4293823242188	-255.3636016845702	438.758544921875	561.1782836914062	-236.7943878173827	477.9879150390625	339.7225036621094	-238.3826141357421	533.7407836914062	329.5195312500001	-259.9875488281249	542.5861206054688	245.651351928711	-279.6687622070312	480.5908203125	239.8464813232422	-262.1423645019531	464.1126098632812	38.5753593444825	-354.268798828125	624.498779296875	23.34785270690924	-267.124267578125	678.70751953125	37.72762298583992	-359.6888732910156	252.4346923828125	932.7060546875001	-539.3212890624998	274.6029357910156	639.3518066406251	-536.2518310546874	226.519775390625	672.6581420898439	-546.4857788085936	190.0909729003906	574.3591918945314	-522.4671020507811	252.7126770019531	561.6276855468751	-519.2713012695311	66.40263366699219	340.9151611328126	-511.5210876464843	9.026850700378418	361.2814941406251	-510.3512268066406	-46.92221069335938	296.3128356933595	-491.2081909179687	5.990634918212891	260.2445068359376	-487.6729431152343	-187.1820526123047	183.4269409179688	-415.4946899414062	-97.15072631835938	24.31445503234873	-452.2787780761719	-60.11042785644531	36.86786270141609	-354.2227478027344	
46	0.18	433.8591003417969	1716.534057617188	-342.0400390624996	376.2539978027344	1661.875244140625	-267.1393432617184	377.1529235839844	1669.181884765625	-415.030853271484	243.9073791503906	1494.344604492188	-350.240081787109	168.3842926025391	1294.626708984375	-294.1110534667966	171.3115997314453	1302.704956054688	-428.6049499511716	419.6460876464844	1330.620971679688	-348.6317138671872	315.3743896484375	1438.1533203125	-175.9535827636716	263.6531677246094	1274.906494140625	-96.420356750488	319.997802734375	1186.6025390625	-90.69388580322239	198.8401641845703	1194.104858398438	-94.51399993896457	240.8999633789062	1085.382080078125	-88.27312469482398	229.1128692626953	1084.602172851562	-167.893600463867	330.4473266601562	897.3504028320312	-81.84971618652324	372.8481140136719	832.5645751953125	-116.400550842285	299.4510498046875	809.8720703125	-97.01218414306622	361.4183349609375	742.5003662109375	-67.17111968994124	324.6180725097656	1452.904174804688	-517.0698242187497	307.4246520996094	1287.991943359375	-614.1390380859372	372.496337890625	1209.722778320313	-613.2189941406248	252.1395721435547	1208.8505859375	-641.9101562499998	315.1368713378906	1105.519165039063	-649.6605834960935	263.5805053710938	1095.786010742188	-591.909973144531	439.8309936523438	943.4514160156251	-633.1887207031248	481.6872863769531	890.2051391601564	-583.3256225585935	435.1065673828125	859.0514526367189	-640.2670288085935	520.0745239257812	815.7904052734376	-631.4228515624998	323.8941955566406	1043.360961914062	-191.3881530761716	189.7599639892578	1020.30419921875	-355.423156738281	310.3745727539062	1040.58203125	-536.3814697265623	297.3290100097656	898.0885620117188	-176.316207885742	424.0244445800781	638.314208984375	-213.5624847412108	471.8419799804688	673.1153564453125	-217.6733398437499	506.3089294433594	578.8700561523438	-255.8193969726561	445.4847106933594	561.61962890625	-236.344512939453	481.9885864257812	339.6393432617188	-238.3983459472655	537.620361328125	328.8518371582032	-260.2057800292968	545.6505737304688	245.1388702392579	-280.0029296874999	483.7774353027344	239.9754333496094	-262.1945190429687	464.5890808105469	38.83889007568367	-354.3208618164062	625.16455078125	23.44880104064947	-267.5704040527344	679.7041015625	36.87311553955086	-360.4217224121094	259.3067626953125	932.5798339843751	-538.8744506835935	283.4050903320312	638.9623413085939	-536.8116455078124	234.941650390625	672.0192260742189	-546.8541259765624	199.5931701660156	573.3706665039064	-523.5906982421874	262.3531494140625	561.0372314453126	-520.4302368164061	74.65304565429688	341.3481445312501	-512.5529785156249	17.71088600158691	362.3659667968751	-511.2836303710937	-39.0871467590332	298.0255126953126	-492.4956054687499	13.57258319854736	261.4400634765626	-489.4629211425781	-179.8257141113281	187.799789428711	-416.7499999999999	-96.11865234375	25.28393745422373	-452.1302795410156	-58.98880386352539	37.92108154296883	-354.5744934082031	
